<?xml version="1.0" standalone="no"?>
<!DOCTYPE svg PUBLIC "-//W3C//DTD SVG 20010904//EN"
 "http://www.w3.org/TR/2001/REC-SVG-20010904/DTD/svg10.dtd">
<svg version="1.0" xmlns="http://www.w3.org/2000/svg"
 width="443.000000pt" height="601.000000pt" viewBox="0 0 443.000000 601.000000"
 preserveAspectRatio="xMidYMid meet">
<metadata>
Created by potrace 1.16, written by Peter Selinger 2001-2019
</metadata>
<g transform="translate(0.000000,601.000000) scale(0.100000,-0.100000)"
fill="#000000" stroke="none">
<path d="M2 4123 l3 -1888 2 1878 3 1877 861 0 c571 0 858 3 854 10 -4 7 -303
10 -866 10 l-859 0 2 -1887z"/>
<path d="M2350 6000 c0 -7 170 -10 490 -10 320 0 490 3 490 10 0 7 -170 10
-490 10 -320 0 -490 -3 -490 -10z"/>
<path d="M2828 5583 c-54 -63 1 -152 75 -124 49 19 60 86 21 125 -21 21 -77
20 -96 -1z"/>
<path d="M3061 5574 c-34 -44 -26 -86 21 -110 37 -19 80 -5 97 32 16 35 14 48
-10 78 -15 19 -30 26 -54 26 -24 0 -39 -7 -54 -26z"/>
<path d="M3230 5580 c-26 -26 -26 -74 1 -101 17 -17 29 -20 60 -15 42 7 44 5
29 -25 -12 -21 -50 -25 -68 -7 -9 9 -15 9 -23 1 -17 -17 34 -47 65 -39 47 12
56 31 56 120 l0 82 -50 2 c-39 2 -55 -3 -70 -18z"/>
<path d="M730 4480 l0 -190 188 2 187 3 0 185 0 185 -187 3 -188 2 0 -190z
m320 0 l0 -130 -135 0 -135 0 0 130 0 130 135 0 135 0 0 -130z"/>
<path d="M840 4480 l0 -80 80 0 80 0 0 80 0 80 -80 0 -80 0 0 -80z"/>
<path d="M1160 4590 c0 -79 0 -80 25 -80 24 0 25 -3 25 -55 0 -52 -1 -55 -25
-55 l-25 0 0 -105 0 -105 -25 0 c-20 0 -25 5 -25 25 0 21 -5 25 -30 25 -25 0
-30 -4 -30 -25 0 -20 -5 -25 -25 -25 -20 0 -25 5 -25 25 0 25 -1 25 -80 25
-78 0 -80 -1 -80 -24 0 -19 -6 -25 -27 -28 -22 -2 -29 -9 -31 -30 -3 -22 -9
-28 -28 -28 -23 0 -24 -2 -24 -80 0 -79 0 -80 25 -80 20 0 25 -5 25 -25 0 -21
5 -25 30 -25 30 0 30 -1 30 -55 0 -54 0 -55 -30 -55 l-30 0 0 -80 c0 -79 0
-80 -26 -80 -22 0 -25 -4 -22 -27 2 -20 9 -28 23 -28 14 0 21 8 23 28 3 26 6
27 58 27 l54 0 0 -55 c0 -52 -2 -55 -24 -55 -19 0 -25 6 -28 28 -3 26 -8 28
-48 23 -5 0 -10 -12 -10 -26 0 -20 -5 -25 -25 -25 -20 0 -25 -5 -25 -25 0 -20
5 -25 25 -25 25 0 25 -1 25 -80 0 -79 0 -80 -25 -80 -21 0 -25 -5 -25 -31 0
-28 3 -31 25 -27 24 5 25 3 25 -48 0 -53 0 -54 30 -54 27 0 30 -3 30 -30 0
-25 4 -30 25 -30 21 0 25 5 25 31 0 27 3 30 25 27 14 -2 25 -6 25 -10 0 -5 0
-28 0 -53 0 -41 -2 -45 -25 -45 -24 0 -25 -3 -25 -55 0 -52 -2 -55 -24 -55
-19 0 -25 6 -28 28 -2 21 -8 27 -28 27 -23 0 -25 -4 -28 -52 -3 -49 -5 -53
-28 -53 -18 0 -24 -5 -24 -23 0 -30 6 -36 31 -30 12 3 19 14 19 29 0 22 4 24
54 24 52 0 55 -1 58 -27 2 -22 8 -27 25 -25 17 2 22 -3 25 -25 2 -22 9 -29 31
-31 21 -3 27 -9 27 -27 0 -18 -6 -24 -27 -27 l-28 -3 -2 -105 c-2 -105 -2
-105 -27 -108 l-26 -3 0 80 0 81 -55 0 -55 0 0 -50 c0 -47 -2 -50 -25 -50 -24
0 -25 -3 -25 -55 0 -52 1 -55 25 -55 20 0 25 -5 25 -25 0 -20 -5 -25 -25 -25
-24 0 -25 -3 -25 -55 0 -52 1 -55 25 -55 20 0 25 5 25 25 0 21 5 25 30 25 25
0 30 -4 30 -25 0 -20 5 -25 25 -25 20 0 25 -5 25 -25 0 -20 5 -25 24 -25 19 0
25 -6 28 -27 2 -22 9 -29 31 -31 21 -3 27 -9 27 -28 0 -22 -3 -24 -55 -24 -52
0 -55 1 -55 25 0 20 -5 25 -25 25 -20 0 -25 -5 -25 -25 0 -21 -5 -25 -30 -25
-30 0 -30 1 -30 55 0 52 -1 55 -25 55 -25 0 -25 -1 -25 -80 l0 -80 135 0 135
0 0 25 c0 25 1 25 80 25 78 0 80 -1 80 -24 0 -23 -4 -25 -52 -28 -49 -3 -53
-5 -56 -30 -3 -28 -2 -28 52 -28 53 0 56 -1 56 -25 0 -20 5 -25 25 -25 24 0
25 -3 25 -55 0 -52 -1 -55 -25 -55 -25 0 -25 -1 -25 -80 0 -79 0 -80 25 -80
24 0 25 3 25 55 0 54 0 55 30 55 l30 0 0 -110 0 -110 25 0 c21 0 25 5 25 30 0
26 4 30 28 30 26 0 27 2 27 50 0 48 -1 50 -27 50 -24 0 -28 4 -28 30 0 25 -4
30 -25 30 -20 0 -25 5 -25 25 0 25 1 25 80 25 l80 0 0 -55 c0 -52 1 -55 25
-55 24 0 25 3 25 55 l0 55 80 0 c79 0 80 0 80 -25 0 -20 5 -25 25 -25 20 0 25
5 25 25 0 25 1 25 80 25 79 0 80 0 80 25 0 25 -1 25 -80 25 -79 0 -80 0 -80
-25 0 -20 -5 -25 -25 -25 -24 0 -25 3 -25 55 0 52 -2 55 -24 55 -19 0 -25 -6
-28 -27 -3 -28 -4 -28 -80 -31 l-78 -3 0 31 c0 29 1 30 50 30 47 0 50 2 50 25
0 21 5 25 31 25 27 0 30 3 27 28 -2 21 -8 27 -28 27 -20 0 -26 -6 -28 -27 -3
-22 -9 -28 -28 -28 -23 0 -24 2 -24 80 0 78 1 80 24 80 19 0 25 6 28 28 2 21
9 28 31 30 27 3 27 2 27 -52 l0 -56 50 0 50 0 0 55 0 55 -50 0 c-47 0 -50 2
-50 25 0 20 5 25 25 25 20 0 25 5 25 25 0 20 5 25 25 25 20 0 25 -5 25 -25 0
-21 5 -25 30 -25 30 0 30 -1 30 -55 0 -52 1 -55 25 -55 21 0 25 5 25 30 0 25
4 30 25 30 24 0 25 -3 25 -55 0 -52 -1 -55 -25 -55 -20 0 -25 -5 -25 -25 0
-20 -5 -25 -25 -25 -21 0 -25 -5 -25 -30 0 -25 4 -30 25 -30 20 0 25 -5 25
-25 0 -20 5 -25 25 -25 20 0 25 5 25 25 0 24 3 25 55 25 52 0 55 -1 55 -25 0
-24 3 -25 55 -25 52 0 55 1 55 25 0 20 5 25 26 25 24 0 25 -2 22 -52 l-3 -53
-77 -3 -78 -3 0 -80 0 -80 -52 3 c-49 3 -53 5 -56 31 -3 25 -6 27 -52 27 -46
0 -49 -2 -52 -27 -2 -22 -9 -29 -30 -31 -22 -3 -28 -9 -28 -28 0 -19 -5 -24
-25 -24 -20 0 -25 5 -25 25 0 20 -5 25 -25 25 -20 0 -25 -5 -25 -25 0 -21 -5
-25 -31 -25 -28 0 -31 -3 -27 -25 5 -22 2 -25 -23 -25 -24 0 -29 4 -29 25 0
20 -5 25 -25 25 -24 0 -25 -3 -25 -55 l0 -55 80 0 80 0 0 55 c0 52 1 55 25 55
24 0 25 -3 25 -56 l0 -55 53 3 c48 3 52 5 55 31 3 21 9 27 28 27 19 0 24 5 24
25 0 24 3 25 55 25 l55 0 0 -55 c0 -52 1 -55 25 -55 24 0 25 3 25 55 0 52 1
55 25 55 20 0 25 -5 25 -25 0 -25 1 -25 79 -25 79 0 80 0 83 -28 3 -25 7 -27
56 -30 l52 -3 0 30 c0 28 3 31 30 31 27 0 30 2 24 25 l-6 25 111 0 111 0 0 25
c0 23 3 25 50 25 l50 0 0 55 c0 54 0 55 30 55 l30 0 0 -80 0 -80 -30 0 c-25 0
-30 -4 -30 -24 0 -18 -6 -25 -22 -28 -17 -2 -24 -11 -26 -30 -3 -24 0 -28 22
-28 22 0 26 4 26 31 0 27 3 30 28 27 21 -2 28 -9 30 -30 3 -26 6 -28 52 -28
46 0 49 2 52 28 2 21 9 28 31 30 24 3 27 0 27 -27 0 -26 4 -31 25 -31 21 0 25
5 25 30 0 25 4 30 25 30 23 0 25 3 25 49 0 44 -3 50 -22 53 -17 2 -24 11 -26
31 -3 21 -9 27 -28 27 -22 0 -24 -3 -24 -55 l0 -55 -55 0 c-52 0 -55 1 -55 25
0 20 5 25 25 25 21 0 25 5 25 30 0 25 -4 30 -25 30 -20 0 -25 5 -25 25 0 20 5
25 25 25 20 0 25 5 25 25 l0 25 -105 0 -105 0 0 30 0 30 104 0 105 0 3 53 3
52 53 3 52 3 0 -30 c0 -26 -4 -31 -25 -31 -25 0 -25 -1 -25 -80 0 -79 0 -80
25 -80 24 0 25 3 25 56 0 54 1 55 27 52 25 -3 26 -7 27 -53 1 -47 3 -50 29
-53 21 -3 27 -9 27 -27 0 -18 -6 -24 -27 -27 -22 -2 -28 -8 -28 -28 0 -20 6
-26 28 -28 21 -3 27 -9 27 -28 0 -19 5 -24 25 -24 20 0 25 -5 25 -25 0 -20 -5
-25 -25 -25 -21 0 -25 -5 -25 -30 0 -25 4 -30 25 -30 21 0 25 5 25 30 0 27 3
30 30 30 29 0 30 1 30 50 0 47 2 50 25 50 20 0 25 -5 25 -25 0 -20 5 -25 25
-25 20 0 25 5 25 25 0 21 5 25 30 25 25 0 30 -4 30 -25 0 -25 1 -25 80 -25 79
0 80 0 80 25 0 25 -1 25 -80 25 l-80 0 0 30 0 30 105 0 105 0 0 -30 c0 -25 4
-30 24 -30 19 0 25 6 28 28 2 21 8 27 28 27 23 0 25 -4 28 -52 l3 -53 -30 0
c-31 0 -31 0 -31 -55 l0 -55 80 0 80 0 0 30 c0 25 -4 30 -25 30 -25 0 -25 1
-25 80 l0 80 55 0 c52 0 55 1 55 25 0 21 -5 25 -30 25 -25 0 -30 4 -30 25 0
20 -5 25 -25 25 -21 0 -25 5 -25 30 0 30 0 30 56 30 l55 0 -3 53 c-3 48 -5 52
-30 55 -26 3 -28 6 -28 52 0 46 2 49 28 52 25 3 27 7 30 56 l3 52 -55 0 c-53
0 -56 1 -56 25 0 20 5 25 25 25 21 0 25 5 25 30 0 27 3 30 30 30 25 0 30 4 30
25 0 21 -5 25 -30 25 -25 0 -30 4 -30 24 0 19 6 25 28 28 21 2 28 9 30 31 3
24 0 27 -27 27 -26 0 -31 4 -31 25 0 21 5 25 30 25 25 0 30 4 30 25 0 21 -5
25 -30 25 -27 0 -30 3 -30 30 0 27 3 30 30 30 25 0 30 4 30 25 0 21 -5 25 -31
25 -27 0 -30 3 -27 28 2 21 8 27 28 27 20 0 26 6 28 28 3 24 0 27 -27 27 -26
0 -31 4 -31 25 0 20 -5 25 -25 25 -21 0 -25 5 -25 30 0 25 4 30 25 30 20 0 25
5 25 25 0 21 5 25 30 25 25 0 30 4 30 24 0 19 -6 25 -27 28 -22 2 -29 9 -31
31 -3 21 -9 27 -28 27 -24 0 -25 2 -22 53 l3 52 50 1 c46 1 50 2 53 27 3 26 2
27 -52 27 l-56 0 0 55 c0 52 1 55 25 55 20 0 25 5 25 25 0 21 5 25 31 25 30 0
30 0 27 52 -3 49 -5 53 -28 53 -20 0 -26 -6 -28 -28 -3 -21 -9 -27 -28 -27
-23 0 -24 2 -24 80 l0 80 55 0 55 0 0 80 0 80 -30 0 c-27 0 -30 3 -30 30 0 27
3 30 30 30 25 0 30 4 30 25 0 21 -5 25 -30 25 l-30 0 0 80 0 80 30 0 c30 0 30
1 30 55 l0 55 -80 0 c-79 0 -80 0 -80 -25 0 -20 5 -25 25 -25 21 0 25 -5 25
-30 0 -30 -1 -30 -55 -30 -52 0 -55 -1 -55 -25 0 -23 -3 -25 -50 -25 -47 0
-50 2 -50 25 0 24 -3 25 -55 25 -54 0 -55 0 -55 30 l0 30 80 0 c79 0 80 0 80
25 0 25 -1 25 -80 25 l-80 0 0 55 c0 52 -2 55 -24 55 -19 0 -25 -6 -28 -27 -2
-22 -8 -28 -28 -28 -23 0 -25 4 -28 53 l-3 52 31 0 31 0 -3 133 -3 132 -80 0
-79 0 3 -52 2 -53 -55 0 -55 0 -3 53 -3 52 -52 3 -53 3 0 -30 c0 -28 3 -31 30
-31 25 0 29 -4 27 -22 -2 -18 4 -24 26 -26 21 -3 27 -9 27 -27 0 -18 -6 -24
-27 -27 -22 -2 -28 -8 -28 -28 0 -23 -4 -25 -53 -28 -52 -3 -52 -3 -52 27 0
29 2 30 53 33 46 3 52 6 53 26 1 20 -3 22 -52 22 -51 0 -54 -2 -54 -24 0 -19
-6 -25 -27 -28 -28 -3 -28 -4 -31 -80 -3 -75 -4 -78 -27 -78 -21 0 -25 -5 -25
-30 0 -25 -4 -30 -24 -30 -19 0 -25 6 -28 28 -2 21 -8 27 -28 27 -20 0 -26 -6
-28 -27 -3 -22 -9 -28 -28 -28 -20 0 -24 5 -24 30 0 25 -4 30 -25 30 -23 0
-25 3 -25 50 l0 50 -55 0 c-54 0 -55 0 -55 30 0 25 4 30 25 30 23 0 25 3 25
50 0 49 1 50 30 50 27 0 30 3 30 30 l0 31 -107 -3 c-108 -3 -108 -3 -108 -28
0 -23 4 -25 53 -28 l52 -3 0 -50 c0 -46 -2 -49 -25 -49 -21 0 -25 -5 -25 -30
0 -30 -1 -30 -55 -30 -54 0 -55 0 -55 30 0 26 4 30 28 30 24 0 28 4 27 23 -1
16 -9 23 -28 25 -21 3 -27 9 -27 28 0 19 -5 24 -24 24 -19 0 -25 6 -28 28 -3
27 -4 27 -80 30 l-77 3 -3 -28 c-2 -22 -8 -28 -28 -28 -20 0 -26 6 -28 28 -3
21 -9 27 -28 27 -22 0 -24 -3 -24 -55 0 -52 1 -55 25 -55 25 0 25 -1 25 -80
l0 -80 30 0 c25 0 30 4 30 25 0 20 5 25 25 25 25 0 25 -1 25 -80 0 -78 -1 -80
-24 -80 -19 0 -25 6 -28 28 -2 21 -8 27 -28 27 -20 0 -26 -6 -28 -27 -3 -22
-9 -28 -28 -28 -20 0 -24 5 -24 30 0 25 -4 30 -25 30 -24 0 -25 -3 -25 -55 l0
-55 -80 0 c-79 0 -80 0 -80 -25 0 -21 -5 -25 -30 -25 -25 0 -30 4 -30 25 0 23
-3 25 -50 25 -47 0 -50 2 -50 25 0 20 5 25 25 25 21 0 25 5 25 30 0 25 4 30
25 30 21 0 25 -5 25 -31 0 -27 3 -30 28 -27 21 2 28 9 30 31 3 21 9 27 28 27
20 0 24 -5 24 -30 0 -25 4 -30 25 -30 24 0 25 3 25 55 0 54 0 55 30 55 25 0
30 4 30 25 0 21 -5 25 -30 25 -30 0 -30 1 -30 55 0 54 0 55 30 55 25 0 30 4
30 25 0 24 -3 25 -55 25 -55 0 -55 0 -55 31 l0 30 -52 -3 -53 -3 -3 -52 c-3
-49 -5 -53 -28 -53 -19 0 -24 5 -24 25 0 20 -5 25 -24 25 -19 0 -25 6 -28 28
-3 25 -7 27 -55 30 l-53 3 0 -80 0 -81 55 0 c52 0 55 1 55 25 0 20 5 25 25 25
20 0 25 -5 25 -25 0 -20 5 -25 25 -25 21 0 25 -5 25 -30 l0 -30 80 0 c79 0 80
0 80 -25 l0 -25 -105 0 -105 0 0 25 c0 20 -5 25 -25 25 -20 0 -25 -5 -25 -25
0 -20 5 -25 25 -25 20 0 25 -5 25 -25 0 -20 -5 -25 -25 -25 -21 0 -25 -5 -25
-31 0 -27 -3 -30 -27 -27 -22 2 -29 9 -31 31 -3 21 -9 27 -28 27 -20 0 -24 -5
-24 -30 0 -25 -4 -30 -24 -30 -19 0 -25 6 -28 28 -2 21 -9 28 -30 30 -22 3
-28 9 -28 28 0 19 -5 24 -25 24 -20 0 -25 5 -25 25 0 24 3 25 55 25 52 0 55
-1 55 -25 0 -23 3 -25 49 -25 44 0 49 2 53 25 5 24 3 25 -48 25 -50 0 -53 1
-56 28 -2 21 -9 28 -30 30 -22 3 -28 9 -28 28 0 20 5 24 30 24 25 0 30 4 30
25 0 21 -5 25 -31 25 -27 0 -30 3 -27 28 3 26 1 27 -49 30 -50 3 -52 2 -55
-25 -2 -22 -9 -29 -30 -31 -25 -3 -28 0 -28 27 0 26 -4 31 -25 31 -25 0 -25
-1 -25 -80z m2080 -135 c0 -52 -1 -55 -25 -55 l-25 0 0 -105 0 -105 25 0 c20
0 25 5 25 25 0 21 5 25 30 25 25 0 30 -4 30 -25 0 -21 -5 -25 -30 -25 -30 0
-30 -1 -30 -55 0 -52 -1 -55 -25 -55 -24 0 -25 -3 -25 -55 0 -52 1 -55 25 -55
20 0 25 5 25 25 0 24 3 25 55 25 54 0 55 0 55 30 0 25 -4 30 -25 30 -20 0 -25
5 -25 25 0 20 5 25 25 25 20 0 25 -5 25 -25 0 -20 5 -25 24 -25 19 0 25 -6 28
-27 l3 -28 130 -2 130 -1 3 -26 c3 -20 9 -26 28 -26 19 0 24 -5 24 -25 0 -20
-5 -25 -25 -25 -20 0 -25 5 -25 25 0 20 -5 25 -25 25 -20 0 -25 -5 -25 -24 0
-19 -6 -25 -27 -28 -22 -2 -29 -9 -31 -30 -3 -22 -9 -28 -28 -28 -19 0 -24 -5
-24 -25 0 -25 1 -25 80 -25 79 0 80 0 80 25 0 20 5 25 25 25 23 0 25 -3 25
-50 0 -47 -2 -50 -25 -50 -21 0 -25 -5 -25 -30 l0 -30 -80 0 -80 0 0 55 c0 52
-1 55 -25 55 -24 0 -25 -3 -25 -55 l0 -55 -56 0 c-54 0 -55 0 -52 28 2 19 9
28 26 30 19 3 22 9 22 53 l0 49 55 0 55 0 0 55 c0 52 -1 55 -25 55 -20 0 -25
-5 -25 -25 0 -21 -5 -25 -30 -25 -29 0 -30 1 -30 50 0 47 -2 50 -25 50 -20 0
-25 -5 -25 -25 0 -20 -5 -25 -25 -25 -25 0 -25 -1 -25 -80 l0 -80 -80 0 -80 0
0 -55 c0 -52 1 -55 25 -55 21 0 25 5 25 30 0 25 4 30 25 30 21 0 25 -5 25 -30
0 -27 3 -30 29 -30 29 0 30 -2 33 -52 3 -45 6 -53 23 -53 14 0 21 -8 23 -27 3
-22 9 -28 28 -28 22 0 24 3 24 55 l0 55 55 0 c51 0 55 -2 55 -24 0 -24 23 -41
41 -30 5 3 9 -9 9 -25 0 -30 -1 -31 -50 -31 -47 0 -50 -2 -50 -25 0 -24 -3
-25 -55 -25 -52 0 -55 -1 -55 -25 0 -24 -3 -25 -55 -25 l-55 0 0 -55 c0 -54 0
-55 30 -55 25 0 30 4 30 25 0 20 5 25 25 25 20 0 25 -5 25 -25 0 -20 -5 -25
-25 -25 -24 0 -24 -1 -27 -107 l-3 -108 -27 -3 c-22 -3 -28 -9 -28 -28 0 -20
5 -24 30 -24 25 0 30 -4 30 -25 0 -21 -5 -25 -30 -25 -25 0 -30 4 -30 25 0 25
-1 25 -80 25 l-80 0 0 55 0 55 -80 0 -80 0 0 -30 c0 -27 3 -30 30 -30 25 0 30
-4 30 -25 0 -21 -5 -25 -30 -25 -25 0 -30 -4 -30 -24 0 -19 6 -25 28 -28 25
-3 27 -6 29 -55 2 -52 2 -53 -27 -53 -25 0 -30 -4 -30 -25 0 -24 3 -25 55 -25
l55 0 0 50 0 50 135 0 135 0 0 -25 c0 -21 -5 -25 -30 -25 -30 0 -30 -1 -30
-55 l0 -55 54 0 c52 0 55 1 58 28 3 27 4 27 81 30 74 3 77 4 77 27 0 24 3 25
55 25 52 0 55 1 55 25 0 25 -1 25 -80 25 -79 0 -80 0 -80 -25 0 -21 -5 -25
-30 -25 -25 0 -30 4 -30 25 0 21 5 25 30 25 27 0 30 3 30 30 l0 31 78 -3 c76
-3 77 -3 80 -30 3 -22 9 -28 28 -28 19 0 24 -5 24 -25 0 -20 5 -25 25 -25 20
0 25 -5 25 -25 0 -20 -5 -25 -25 -25 -20 0 -25 5 -25 25 0 20 -5 25 -25 25
-20 0 -25 -5 -25 -25 0 -24 -3 -25 -55 -25 -54 0 -55 0 -55 -30 0 -25 4 -30
25 -30 20 0 25 -5 25 -25 0 -20 -5 -25 -25 -25 -20 0 -25 5 -25 25 0 24 -3 25
-55 25 -52 0 -55 -1 -55 -25 0 -21 5 -25 31 -25 27 0 30 -3 27 -27 -2 -22 -8
-28 -28 -28 -20 0 -26 6 -28 28 -3 21 -9 27 -28 27 -22 0 -24 -3 -24 -55 l0
-55 80 0 c79 0 80 0 80 25 0 24 3 25 55 25 54 0 55 0 55 30 0 25 4 30 25 30
20 0 25 5 25 25 0 20 5 25 25 25 20 0 25 -5 25 -25 0 -20 -5 -25 -25 -25 -21
0 -25 -5 -25 -30 0 -25 4 -30 25 -30 20 0 25 -5 25 -25 0 -20 -5 -25 -25 -25
-20 0 -25 -5 -25 -25 0 -20 -5 -25 -25 -25 -20 0 -25 5 -25 25 0 24 -3 25 -55
25 -52 0 -55 -1 -55 -25 0 -20 5 -25 25 -25 21 0 25 -5 25 -30 0 -25 -4 -30
-25 -30 -21 0 -25 5 -25 30 l0 30 -80 0 -80 0 0 -30 c0 -25 4 -30 25 -30 20 0
25 -5 25 -25 0 -25 1 -25 80 -25 l80 0 0 -55 c0 -52 -1 -55 -25 -55 -21 0 -25
5 -25 30 0 25 -4 30 -24 30 -19 0 -25 -6 -28 -27 -3 -26 -7 -28 -55 -31 -49
-3 -53 -5 -53 -28 0 -19 5 -24 25 -24 20 0 25 -5 25 -25 0 -21 5 -25 30 -25
25 0 30 4 30 25 0 20 5 25 25 25 20 0 25 -5 25 -25 0 -24 3 -25 55 -25 52 0
55 1 55 25 0 20 5 25 25 25 24 0 25 -3 25 -55 l0 -55 -55 0 c-52 0 -55 -1 -55
-25 l0 -25 -160 0 -160 0 0 -24 c0 -19 6 -25 28 -28 25 -3 27 -7 30 -55 l3
-53 -55 0 -56 0 0 -55 c0 -52 -1 -55 -25 -55 -22 0 -25 -4 -25 -39 0 -55 -8
-71 -36 -71 -22 0 -24 4 -24 55 0 52 -1 55 -25 55 -24 0 -25 3 -25 55 l0 55
80 0 c79 0 80 0 80 25 0 24 -3 25 -55 25 -54 0 -55 0 -55 30 l0 30 -80 0 c-79
0 -80 0 -80 25 0 21 5 25 31 25 26 0 30 3 27 23 -3 19 -10 22 -55 25 -51 3
-53 2 -53 -22 0 -25 -3 -26 -55 -26 l-55 0 0 55 0 55 -56 0 c-54 0 -55 0 -52
-27 2 -22 9 -29 31 -31 21 -3 27 -9 27 -28 0 -22 -3 -24 -55 -24 -52 0 -55 -1
-55 -25 0 -20 -5 -25 -25 -25 -24 0 -25 -3 -25 -55 l0 -55 -55 0 -55 0 0 81 0
80 -52 -3 c-48 -3 -53 -5 -52 -25 1 -19 -4 -23 -27 -23 -24 0 -29 4 -29 25 0
24 -3 25 -56 25 -55 0 -56 -1 -52 -25 l5 -25 -83 0 -84 0 0 -30 c0 -25 -4 -30
-25 -30 -21 0 -25 5 -25 30 0 30 -1 30 -55 30 -54 0 -55 0 -55 -30 0 -25 -4
-30 -25 -30 -21 0 -25 5 -25 30 0 25 4 30 25 30 20 0 25 5 25 25 0 21 5 25 30
25 30 0 30 1 30 55 0 54 0 55 -30 55 -25 0 -30 4 -30 25 0 23 -3 25 -50 25
-47 0 -50 2 -50 25 0 21 -5 25 -30 25 -27 0 -30 3 -30 30 0 27 3 30 30 30 25
0 30 4 30 25 0 20 5 25 25 25 20 0 25 5 25 25 0 25 -1 25 -80 25 l-80 0 0 55
c0 52 -1 55 -24 55 -23 0 -25 -4 -28 -52 l-3 -53 -77 -3 c-75 -3 -78 -4 -78
-27 0 -25 0 -25 105 -25 l105 0 0 -25 c0 -20 -5 -25 -24 -25 -19 0 -25 -6 -28
-27 -3 -26 -7 -28 -55 -31 -49 -3 -53 -5 -53 -28 0 -19 -5 -24 -25 -24 -20 0
-25 5 -25 24 0 19 -6 25 -27 28 -22 2 -29 9 -31 31 -3 25 -6 27 -52 27 -46 0
-49 -2 -52 -27 -2 -22 -9 -29 -31 -31 -21 -3 -27 -9 -27 -28 0 -23 2 -24 80
-24 79 0 80 0 80 -25 0 -20 -5 -25 -25 -25 -21 0 -25 -5 -25 -30 0 -30 1 -30
55 -30 52 0 55 -1 55 -25 0 -21 -5 -25 -31 -25 -28 0 -31 -3 -27 -25 5 -22 2
-25 -23 -25 -28 0 -29 2 -29 50 0 47 -2 50 -25 50 -23 0 -25 -3 -25 -50 0 -49
-1 -50 -30 -50 -27 0 -30 -3 -30 -30 0 -27 3 -30 30 -30 25 0 30 -4 30 -25 0
-20 5 -25 26 -25 22 0 25 -4 22 -27 -2 -20 -9 -29 -25 -31 -20 -3 -23 1 -23
27 0 28 -3 31 -30 31 -25 0 -30 4 -30 25 0 20 -5 25 -25 25 -21 0 -25 5 -25
30 0 25 4 30 25 30 23 0 25 3 25 50 0 47 -2 50 -25 50 -25 0 -25 1 -25 80 0
79 0 80 -25 80 -20 0 -25 -5 -25 -25 0 -21 -5 -25 -30 -25 -25 0 -30 4 -30 25
0 24 -3 25 -55 25 -52 0 -55 -1 -55 -25 0 -21 5 -25 30 -25 25 0 30 -4 30 -25
0 -21 -5 -25 -30 -25 -25 0 -30 4 -30 25 0 20 -5 25 -25 25 -20 0 -25 5 -25
25 0 20 -5 25 -25 25 -21 0 -25 5 -25 30 0 25 4 30 25 30 21 0 25 -5 25 -30 0
-25 4 -30 25 -30 26 0 27 1 27 68 0 40 1 42 29 42 l29 0 0 104 0 105 53 3 c48
3 52 5 52 28 0 20 -6 26 -27 28 -22 3 -28 9 -28 28 0 19 -5 24 -25 24 -24 0
-25 3 -25 55 l0 55 80 0 c79 0 80 0 80 25 0 20 5 25 25 25 l25 0 0 160 0 160
-47 1 c-110 3 -108 2 -111 32 -3 21 -9 27 -27 27 -18 0 -24 -6 -27 -27 -2 -22
-8 -28 -28 -28 -23 0 -25 4 -28 53 l-4 52 56 0 c56 0 56 0 56 30 l0 30 -80 0
-80 0 0 -30 c0 -25 -4 -30 -25 -30 -21 0 -25 5 -25 30 0 25 4 30 25 30 20 0
25 5 25 25 0 21 5 25 31 25 28 0 31 2 25 25 -6 24 -6 24 76 27 83 3 83 3 86
31 3 23 8 28 25 25 16 -2 23 -11 25 -30 3 -22 9 -28 27 -28 18 0 24 6 27 26 3
26 6 27 81 31 l77 5 0 -31 c0 -28 3 -31 30 -31 25 0 30 -4 30 -25 0 -24 -3
-25 -55 -25 -52 0 -55 -1 -55 -25 0 -25 1 -25 80 -25 l80 0 0 -30 c0 -26 4
-30 28 -30 22 0 27 -4 27 -25 0 -21 -5 -25 -27 -25 -23 0 -28 4 -28 25 0 20
-5 25 -25 25 -25 0 -25 -1 -25 -80 l0 -80 50 0 c46 0 50 2 50 23 0 31 5 35 35
29 23 -4 25 -9 25 -53 l0 -49 50 0 50 0 0 80 c0 78 -1 80 -24 80 -19 0 -25 -6
-28 -27 -2 -20 -9 -28 -23 -28 -14 0 -21 8 -23 28 -3 23 0 27 22 27 21 0 26 5
26 25 0 20 -5 25 -24 25 -19 0 -25 6 -28 28 -2 21 -8 27 -28 27 -20 0 -26 6
-28 28 -3 21 -9 27 -28 27 -24 0 -25 2 -22 53 l3 52 75 1 c74 1 75 1 78 27 3
21 9 27 28 27 18 0 24 -5 24 -23 0 -31 5 -35 35 -29 23 4 25 9 25 53 l0 49
-79 0 c-79 0 -80 0 -83 28 -2 21 -8 27 -28 27 -23 0 -25 -4 -28 -52 -3 -49 -5
-53 -28 -53 -23 0 -24 2 -24 80 l0 80 -80 0 c-79 0 -80 0 -80 -25 0 -20 -5
-25 -25 -25 -20 0 -25 5 -25 25 0 24 -3 25 -55 25 -52 0 -55 1 -55 25 0 20 -5
25 -25 25 -20 0 -25 -5 -25 -25 0 -24 -3 -25 -55 -25 -52 0 -55 -1 -55 -26 0
-22 -4 -25 -28 -22 -19 2 -28 9 -30 26 -3 16 -10 22 -28 22 -19 0 -24 5 -24
24 0 19 6 25 28 28 21 2 27 8 27 28 0 20 6 26 28 28 21 3 27 9 27 28 0 20 -5
24 -31 24 l-30 0 3 53 c3 48 5 52 30 55 22 3 28 9 28 28 0 22 -3 24 -55 24
-52 0 -55 -1 -55 -25 0 -20 -5 -25 -25 -25 -21 0 -25 -5 -25 -30 0 -25 4 -30
25 -30 23 0 25 -3 25 -50 0 -47 -2 -50 -25 -50 -20 0 -25 5 -25 25 0 21 -5 25
-30 25 l-30 0 0 80 0 80 30 0 c27 0 30 3 30 30 l0 30 80 0 80 0 0 -30 c0 -25
4 -30 25 -30 21 0 25 5 25 30 0 27 3 30 31 30 27 0 30 -3 27 -27 -2 -22 -9
-29 -31 -31 -21 -3 -27 -9 -27 -28 0 -22 3 -24 55 -24 52 0 55 1 55 25 0 20 5
25 25 25 20 0 25 -5 25 -25 0 -21 5 -25 30 -25 25 0 30 4 30 25 0 20 5 25 25
25 24 0 25 3 25 55 0 52 1 55 25 55 20 0 25 -5 25 -25 0 -24 3 -25 55 -25 52
0 55 1 55 25 0 24 3 25 55 25 l55 0 0 -110 0 -110 25 0 c20 0 25 -5 25 -25 0
-20 5 -25 25 -25 25 0 25 1 25 80 0 79 0 80 -25 80 -21 0 -25 5 -25 30 0 25 4
30 25 30 21 0 25 -5 25 -30 l0 -30 79 0 c79 0 80 0 83 28 2 21 9 28 31 30 21
3 27 9 27 28 0 19 5 24 25 24 20 0 25 -5 25 -25 0 -20 5 -25 25 -25 23 0 25 3
25 50 0 49 1 50 30 50 25 0 30 -4 30 -25 0 -20 5 -25 25 -25 20 0 25 -5 25
-25 0 -24 -3 -25 -55 -25 -54 0 -55 0 -55 -30 l0 -30 79 0 79 0 4 -51 c1 -28
1 -53 -1 -55 -2 -2 -26 -4 -52 -4 -45 0 -48 2 -51 28 -2 21 -9 28 -30 30 -25
3 -28 0 -28 -27 0 -26 -4 -31 -25 -31 -23 0 -25 -3 -25 -50 0 -47 2 -50 25
-50 20 0 25 5 25 25 0 21 5 25 30 25 30 0 30 -1 30 -55 0 -52 1 -55 25 -55 20
0 25 -5 25 -25 0 -20 5 -25 25 -25 20 0 25 5 25 25 0 21 5 25 30 25 29 0 30
-1 30 -50 0 -47 2 -50 25 -50 23 0 25 3 25 50 0 48 1 50 28 50 24 0 28 4 27
28 0 22 -5 28 -27 30 -22 3 -28 9 -28 28 0 19 -5 24 -25 24 l-25 0 0 110 0
110 25 0 c24 0 25 -3 25 -55 0 -52 1 -55 25 -55 24 0 30 9 26 38 -1 7 10 12
29 12 l30 0 0 160 0 160 25 0 c20 0 25 -5 25 -25 0 -21 5 -25 29 -25 25 0 28
-3 23 -25 -4 -22 -1 -25 27 -25 28 0 31 -3 31 -30 0 -25 4 -30 25 -30 20 0 25
-5 25 -25 0 -20 -5 -25 -25 -25 -20 0 -25 5 -25 24 0 19 -6 25 -27 28 -22 2
-29 9 -31 31 -3 23 -8 28 -25 25 -19 -3 -22 -10 -25 -55 -3 -51 -2 -53 22 -53
23 0 25 -4 28 -52 3 -49 5 -53 31 -56 24 -3 27 0 27 27 0 26 4 31 25 31 21 0
25 -5 25 -30 0 -25 -4 -30 -25 -30 -20 0 -25 -5 -25 -24 0 -19 -6 -25 -27 -28
-22 -2 -28 -8 -28 -28 0 -20 6 -26 28 -28 25 -3 27 -6 27 -52 0 -46 -2 -49
-27 -52 -22 -2 -28 -8 -28 -28 0 -20 6 -26 28 -28 27 -3 27 -3 27 -83 l0 -80
-27 3 c-22 2 -29 9 -31 31 -3 25 -6 27 -53 27 -46 0 -49 2 -49 25 0 20 5 25
25 25 l25 0 0 160 0 160 -24 0 c-23 0 -25 -4 -28 -52 l-3 -53 -52 -3 c-49 -3
-53 -5 -53 -28 0 -23 3 -24 56 -24 l55 0 -3 -52 c-3 -46 -6 -53 -28 -58 l-25
-6 0 -129 0 -130 50 0 c47 0 50 2 53 28 3 23 0 27 -22 27 -21 0 -26 5 -26 25
0 23 3 25 50 25 l50 0 2 -62 c0 -35 1 -70 2 -78 1 -11 15 -16 54 -18 l52 -3 0
160 0 161 25 0 c21 0 25 5 25 30 0 25 -4 30 -25 30 -20 0 -25 5 -25 25 0 20 5
25 25 25 20 0 25 -5 25 -25 0 -21 5 -25 30 -25 25 0 30 4 30 25 0 20 5 25 25
25 20 0 25 5 25 24 0 23 -4 25 -52 28 l-53 3 0 80 c0 80 0 80 28 83 21 3 27 9
27 28 0 19 5 24 25 24 20 0 25 -5 25 -25 0 -20 -5 -25 -25 -25 -21 0 -25 -5
-25 -30 l0 -30 81 0 80 0 -3 28 c-2 21 -9 28 -30 30 -22 3 -28 9 -28 28 0 22
3 24 55 24 l55 0 0 55 c0 52 -1 55 -25 55 -21 0 -25 -5 -25 -31 0 -27 -3 -30
-27 -27 -22 2 -29 9 -31 31 -3 24 0 27 27 27 26 0 31 4 31 25 l0 25 105 0 105
0 0 48 c0 27 3 52 7 55 3 4 39 7 80 7 l73 0 0 -55z m-908 -131 c2 -42 1 -78
-1 -80 -2 -2 -40 -4 -83 -4 l-78 0 0 80 0 80 79 0 79 0 4 -76z m1178 -914 c0
-25 4 -30 25 -30 20 0 25 -5 25 -25 0 -21 5 -25 30 -25 30 0 30 -1 30 -55 0
-54 0 -55 -30 -55 -27 0 -30 3 -30 31 0 26 -3 30 -22 27 -21 -3 -23 2 -26 50
-3 47 -5 52 -27 52 -22 0 -24 -5 -27 -52 -3 -49 -5 -53 -28 -53 -23 0 -25 4
-28 53 l-3 52 30 0 c28 0 31 3 31 30 0 25 4 30 25 30 21 0 25 -5 25 -30z
m-2350 -270 l0 -80 -80 0 -80 0 0 80 0 80 80 0 80 0 0 -80z m2350 0 l0 -80
-80 0 -80 0 0 80 0 80 80 0 80 0 0 -80z m-1177 -1177 l-2 -78 -80 -3 -81 -3 0
81 0 80 83 0 82 0 -2 -77z m1177 -3 l0 -80 -80 0 -80 0 0 80 0 80 80 0 80 0 0
-80z m-910 -79 l0 -50 -52 -3 c-49 -3 -53 -5 -53 -28 0 -25 -2 -25 -80 -25
-79 0 -80 0 -80 25 0 24 2 25 78 28 74 3 77 4 77 27 0 23 -4 25 -50 25 -47 0
-50 2 -50 25 l0 25 105 0 105 0 0 -49z m-480 -25 c0 -19 6 -25 27 -28 22 -2
28 -8 28 -28 0 -20 6 -26 28 -28 21 -3 27 -9 27 -28 0 -19 5 -24 25 -24 20 0
25 -5 25 -25 0 -24 -3 -25 -55 -25 -52 0 -55 1 -55 25 0 20 -5 25 -25 25 -24
0 -25 3 -25 55 0 52 -1 55 -25 55 -24 0 -25 -3 -25 -55 0 -54 0 -55 -30 -55
l-30 0 0 80 0 80 55 0 c52 0 55 -2 55 -24z"/>
<path d="M2976 4231 c-4 -5 -3 -16 0 -24 4 -11 -2 -16 -23 -19 -22 -2 -29 -9
-31 -30 -3 -22 -9 -28 -28 -28 -22 0 -24 -3 -24 -55 0 -52 1 -55 25 -55 20 0
25 -5 25 -25 0 -21 5 -25 28 -25 23 0 28 -4 28 -22 -1 -18 5 -24 27 -26 23 -3
27 0 27 22 0 21 5 26 25 26 20 0 25 -5 25 -24 0 -19 6 -25 28 -28 21 -2 28 -9
30 -30 3 -25 0 -28 -27 -28 -26 0 -31 -4 -31 -25 0 -20 -5 -25 -25 -25 -20 0
-25 5 -25 24 0 19 -6 25 -27 28 -23 2 -28 8 -27 31 l1 27 -133 0 -134 0 0 -30
c0 -27 -3 -30 -30 -30 -25 0 -30 -4 -30 -25 0 -21 5 -25 30 -25 25 0 30 4 30
25 0 23 3 25 49 25 44 0 50 -3 53 -22 3 -20 10 -23 56 -26 48 -3 52 -5 52 -28
0 -19 -5 -24 -25 -24 -21 0 -25 -5 -25 -30 0 -30 -1 -30 -55 -30 -54 0 -55 0
-55 30 0 25 4 30 25 30 20 0 25 5 25 25 0 20 -5 25 -25 25 -20 0 -25 -5 -25
-24 0 -23 -4 -25 -52 -28 l-53 -3 0 -80 0 -80 50 0 c47 0 50 2 53 28 3 21 9
27 28 27 19 0 24 -5 24 -24 0 -30 27 -41 76 -31 33 6 34 7 34 55 0 48 1 50 28
50 26 0 27 -2 27 -43 -1 -51 -10 -67 -36 -67 -17 0 -19 -7 -19 -74 0 -74 0
-75 27 -78 22 -2 28 -8 28 -28 0 -20 -6 -26 -28 -28 -21 -3 -27 -9 -27 -28 0
-20 5 -24 29 -24 26 0 29 -3 27 -27 -3 -21 -9 -28 -27 -28 -19 0 -25 -6 -27
-27 -3 -28 -2 -28 52 -28 52 0 55 1 58 28 3 25 6 27 53 27 37 0 50 4 51 15 1
8 2 21 3 28 0 6 12 12 26 12 20 0 25 5 25 25 0 20 -5 25 -24 25 -19 0 -25 6
-28 28 -2 21 -8 27 -28 27 -20 0 -26 -6 -28 -27 -3 -22 -9 -28 -28 -28 -22 0
-24 3 -24 55 l0 55 55 0 c52 0 55 -1 55 -25 0 -23 3 -25 50 -25 47 0 50 2 50
25 0 24 3 25 55 25 52 0 55 1 55 25 0 20 -5 25 -25 25 -20 0 -25 5 -25 24 0
17 -7 25 -25 28 -33 7 -35 3 -35 -54 l0 -48 -50 0 c-47 0 -50 2 -50 25 0 20 5
25 25 25 24 0 25 3 25 55 0 52 1 55 25 55 20 0 25 5 25 25 0 20 -5 25 -25 25
-20 0 -25 -5 -25 -25 0 -25 -1 -25 -80 -25 -79 0 -80 0 -80 25 0 20 5 25 25
25 24 0 25 3 25 55 0 54 0 55 30 55 25 0 30 4 30 25 0 23 3 25 50 25 49 0 50
1 50 30 0 25 -4 30 -25 30 -20 0 -25 5 -25 25 0 24 -3 25 -55 25 -52 0 -55 1
-55 24 0 23 -4 25 -52 28 -49 3 -53 5 -53 28 0 20 -6 26 -27 28 -22 3 -28 9
-28 28 0 22 3 24 55 24 52 0 55 -1 55 -25 0 -24 3 -25 55 -25 l55 0 0 80 0 80
-79 0 c-44 0 -82 -4 -85 -9z"/>
<path d="M1478 4108 c-3 -77 -5 -83 -25 -86 -22 -3 -23 0 -23 52 0 56 0 56
-31 56 l-30 0 3 -52 c3 -49 5 -53 31 -56 21 -3 27 -9 27 -28 0 -22 -3 -24 -55
-24 -52 0 -55 1 -55 25 0 20 -5 25 -25 25 -20 0 -25 -5 -25 -25 0 -20 5 -25
25 -25 20 0 25 -5 25 -25 0 -25 -1 -25 -80 -25 l-80 0 0 -30 0 -31 78 3 c76 3
77 3 80 31 3 26 6 27 58 27 51 0 54 1 54 25 0 20 5 25 25 25 24 0 25 -3 25
-55 0 -52 1 -55 25 -55 24 0 25 3 25 55 0 54 0 55 30 55 l30 0 0 -80 c0 -79 0
-80 25 -80 20 0 25 -5 25 -25 0 -20 5 -25 25 -25 23 0 25 3 25 50 0 49 1 50
30 50 25 0 30 -4 30 -25 0 -20 5 -25 25 -25 20 0 25 -5 25 -25 0 -20 5 -25 25
-25 21 0 25 -5 25 -30 0 -25 -4 -30 -25 -30 -20 0 -25 -5 -25 -25 0 -20 5 -25
26 -25 22 0 25 -4 22 -27 -2 -20 -9 -28 -23 -28 -14 0 -21 -8 -23 -27 -3 -24
0 -28 22 -28 21 0 26 -5 26 -25 0 -20 -5 -25 -25 -25 -20 0 -25 -5 -25 -25 0
-20 5 -25 25 -25 21 0 25 -5 25 -30 0 -27 3 -30 30 -30 25 0 30 -4 30 -25 0
-21 -5 -25 -30 -25 -27 0 -30 -3 -30 -31 0 -26 -3 -30 -22 -27 -20 3 -23 10
-26 56 -3 48 -5 52 -28 52 -24 0 -24 0 -24 -105 l0 -105 -30 0 c-27 0 -30 -3
-30 -30 0 -25 -4 -30 -25 -30 -20 0 -25 -5 -25 -25 0 -20 -5 -25 -25 -25 -24
0 -25 3 -25 55 l0 55 -80 0 c-79 0 -80 0 -80 25 0 21 -5 25 -31 25 l-30 0 2
53 3 52 -52 3 c-52 3 -52 3 -52 -27 0 -26 4 -30 23 -28 17 2 23 -4 25 -25 3
-24 0 -28 -22 -28 l-26 0 0 -105 0 -105 50 0 50 0 0 -55 c0 -52 -1 -55 -25
-55 -20 0 -25 5 -25 25 0 24 -3 25 -55 25 -52 0 -55 -1 -55 -25 0 -21 5 -25
30 -25 25 0 30 -4 30 -24 0 -19 -6 -25 -27 -28 -22 -2 -29 -9 -31 -30 -3 -25
0 -28 28 -28 l31 0 -3 -52 c-3 -49 -5 -53 -30 -56 -25 -3 -28 0 -28 27 0 26
-4 31 -25 31 -21 0 -25 -5 -25 -30 0 -25 -4 -30 -25 -30 -20 0 -25 -5 -25 -25
0 -21 -5 -25 -30 -25 -25 0 -30 -4 -30 -24 0 -19 6 -25 28 -28 21 -2 27 -8 27
-28 0 -20 -6 -26 -27 -28 -22 -3 -28 -9 -28 -28 0 -22 3 -24 55 -24 l55 0 0
-55 c0 -52 1 -55 25 -55 l25 0 0 110 0 110 30 0 c30 0 30 -1 30 -55 l0 -55 50
0 c47 0 50 -2 50 -25 0 -21 5 -25 30 -25 25 0 30 4 30 25 0 21 -5 25 -31 25
-28 0 -31 3 -27 25 5 22 2 25 -23 25 -26 0 -29 4 -29 30 0 30 1 30 55 30 l55
0 0 50 0 49 78 3 c76 3 77 3 80 31 3 21 9 27 28 27 19 0 24 5 24 25 0 20 -5
25 -24 25 -19 0 -25 6 -28 28 -3 25 -7 27 -55 30 -49 3 -53 5 -53 28 0 23 2
24 79 24 79 0 80 0 83 -27 2 -20 9 -28 23 -28 14 0 21 8 23 28 3 23 8 27 33
27 l29 0 0 -80 0 -80 -31 0 c-27 0 -30 -3 -27 -27 2 -22 8 -28 28 -28 20 0 26
6 28 28 3 21 9 27 28 27 23 0 24 -2 24 -80 0 -79 0 -80 25 -80 20 0 25 5 25
25 0 21 5 25 30 25 l30 0 0 -80 0 -80 -30 0 -30 0 0 -80 0 -80 30 0 c25 0 30
-4 30 -25 0 -20 5 -25 25 -25 25 0 25 1 25 80 l0 80 55 0 c52 0 55 1 55 25 0
20 5 25 24 25 23 0 25 -4 28 -52 l3 -53 53 -3 c48 -3 52 -5 52 -28 0 -23 -3
-24 -55 -24 l-55 0 0 -56 c0 -54 0 -55 27 -52 22 2 28 8 28 28 0 20 6 26 28
28 21 3 27 9 27 28 0 19 5 24 25 24 20 0 25 -5 25 -24 0 -23 4 -25 53 -28 48
-3 52 -5 55 -30 3 -22 9 -28 28 -28 19 0 24 -5 24 -25 0 -20 5 -25 25 -25 20
0 25 -5 25 -25 0 -21 5 -25 30 -25 25 0 30 4 30 25 0 20 5 25 25 25 24 0 25 3
25 55 0 52 1 55 25 55 20 0 25 5 25 25 0 24 3 25 55 25 52 0 55 -1 55 -25 0
-20 5 -25 25 -25 20 0 25 5 25 25 0 24 3 25 55 25 l55 0 0 55 0 55 54 0 c52 0
55 -1 58 -27 2 -20 9 -29 26 -31 19 -3 22 1 22 27 0 26 -4 31 -25 31 -20 0
-25 5 -25 25 0 25 -1 25 -79 25 l-80 0 -3 -52 c-3 -49 -5 -53 -30 -56 -22 -3
-28 -9 -28 -28 0 -19 -5 -24 -25 -24 -24 0 -25 3 -25 55 0 52 -2 55 -24 55
-19 0 -25 -6 -28 -27 -2 -22 -8 -28 -28 -28 -23 0 -25 4 -28 53 l-3 52 55 0
c53 0 56 1 56 25 0 20 -5 25 -25 25 -21 0 -25 5 -25 30 0 29 1 30 49 30 47 0
50 -2 53 -27 3 -28 3 -28 83 -28 78 0 79 0 79 25 1 23 -3 25 -52 28 -48 3 -52
5 -52 28 0 23 2 24 80 24 79 0 80 0 80 25 0 20 5 25 25 25 21 0 25 5 25 31 0
27 3 30 28 27 25 -3 27 -7 30 -55 3 -49 5 -53 28 -53 19 0 24 -5 24 -25 0 -20
-5 -25 -24 -25 -17 0 -25 -7 -28 -25 -6 -30 -2 -35 29 -35 18 0 23 -5 23 -25
0 -20 -5 -25 -24 -25 -17 0 -25 -7 -28 -25 -5 -22 -2 -25 23 -25 l29 0 0 -80
c0 -79 0 -80 25 -80 25 0 25 1 25 80 l0 80 30 0 c27 0 30 -3 30 -30 0 -25 4
-30 25 -30 21 0 25 5 25 30 0 25 4 30 25 30 20 0 25 5 25 25 0 20 -5 25 -25
25 -20 0 -25 5 -25 25 0 20 -5 25 -25 25 -21 0 -25 5 -25 30 0 27 -3 30 -30
30 -25 0 -30 4 -30 25 0 20 -5 25 -25 25 -20 0 -25 5 -25 25 0 20 5 25 25 25
21 0 25 5 25 30 0 25 -4 30 -24 30 -23 0 -25 4 -28 53 -3 45 -6 52 -25 55 -17
3 -23 10 -23 28 0 20 -5 24 -30 24 -25 0 -30 -4 -30 -25 0 -21 5 -25 31 -25
27 0 30 -3 27 -27 -2 -22 -9 -29 -30 -31 -22 -3 -28 -9 -28 -28 0 -23 -2 -24
-80 -24 -79 0 -80 0 -80 25 0 20 -5 25 -25 25 -20 0 -25 -5 -25 -25 0 -21 -5
-25 -30 -25 -30 0 -30 1 -30 55 0 54 0 55 30 55 26 0 30 4 30 26 0 22 -4 25
-27 22 -20 -2 -29 -9 -31 -25 -3 -17 -10 -23 -28 -23 -20 0 -24 -5 -24 -30 0
-25 -4 -30 -25 -30 -20 0 -25 -5 -25 -25 0 -21 -5 -25 -30 -25 -25 0 -30 4
-30 25 0 20 -5 25 -25 25 -20 0 -25 -5 -25 -25 0 -24 -3 -25 -55 -25 -54 0
-55 1 -51 25 4 22 1 25 -25 25 -29 0 -29 -1 -29 -55 0 -52 -1 -55 -25 -55 -24
0 -25 3 -25 55 l0 55 -55 0 c-54 0 -55 0 -55 30 0 26 3 30 29 30 23 0 28 4 27
23 -1 17 5 23 27 25 23 3 27 0 27 -22 0 -23 4 -25 52 -28 49 -3 53 -5 53 -28
0 -20 6 -26 28 -28 27 -3 27 -2 27 52 0 52 -1 55 -27 58 -20 2 -29 9 -31 26
-3 19 1 22 27 22 31 0 31 0 31 54 0 52 -1 55 -27 58 -26 3 -28 6 -28 53 0 47
2 50 28 53 24 3 27 0 27 -27 0 -26 4 -31 25 -31 l25 0 0 -105 0 -105 25 0 c25
0 25 1 25 80 l0 80 30 0 c25 0 30 4 30 24 0 19 -6 25 -27 28 -26 3 -28 7 -31
56 -3 48 -5 52 -28 52 -19 0 -24 -5 -24 -25 0 -20 -5 -25 -25 -25 -20 0 -25 5
-25 26 0 22 -4 25 -27 22 -16 -2 -29 -9 -29 -15 -1 -7 -2 -17 -3 -23 0 -5 -12
-10 -26 -10 -20 0 -25 5 -25 25 0 20 -5 25 -24 25 -19 0 -25 6 -28 28 -2 15
-9 27 -18 28 -38 2 -41 5 -38 27 2 16 11 23 31 25 21 3 27 9 27 28 0 19 5 24
25 24 20 0 25 -5 25 -25 0 -21 5 -25 28 -25 24 0 28 -4 27 -27 0 -23 4 -28 25
-28 20 0 26 6 28 28 3 21 9 27 28 27 19 0 24 5 24 25 0 20 5 25 24 25 23 0 25
-4 28 -52 l3 -53 50 0 c47 0 50 2 53 28 3 26 6 27 58 27 51 0 54 2 54 24 0 19
-6 25 -27 28 -22 2 -28 8 -28 28 0 20 6 26 28 28 25 3 27 6 27 53 0 48 -1 49
-30 49 -25 0 -30 -4 -30 -25 0 -20 -5 -25 -25 -25 -20 0 -25 5 -25 25 0 20 -5
25 -25 25 -20 0 -25 -5 -25 -24 0 -19 -6 -25 -27 -28 -20 -2 -29 -9 -31 -25
-2 -14 -11 -23 -25 -25 -16 -2 -23 -11 -25 -30 -3 -22 -9 -28 -28 -28 -22 0
-24 3 -24 55 0 54 0 55 -30 55 -25 0 -30 4 -30 25 0 25 -1 25 -80 25 -79 0
-80 0 -80 -25 0 -24 3 -25 55 -25 52 0 55 -2 55 -24 0 -18 -6 -25 -22 -28 -17
-2 -24 -11 -26 -31 -3 -24 -7 -28 -30 -25 -24 3 -27 7 -28 43 -2 64 -3 65 -29
65 -20 0 -25 -5 -25 -24 0 -23 -4 -25 -52 -28 -49 -3 -53 -5 -53 -28 0 -20 -6
-26 -27 -28 -23 -3 -27 1 -30 25 -2 20 -9 29 -25 31 -22 3 -23 8 -23 84 0 69
-2 79 -16 74 -9 -3 -22 -6 -30 -6 -8 0 -14 -10 -14 -25 0 -23 -3 -25 -50 -25
l-50 0 0 135 0 135 25 0 c25 0 25 -1 25 -80 l0 -80 54 0 c52 0 55 -1 58 -27 2
-20 9 -28 23 -28 14 0 21 8 23 28 3 21 9 27 28 27 19 0 24 5 24 25 0 21 5 25
30 25 25 0 30 -4 30 -25 0 -20 5 -25 25 -25 20 0 25 5 25 25 0 20 -5 25 -25
25 -21 0 -25 5 -25 31 0 27 -3 30 -27 27 -22 -2 -29 -9 -31 -30 -3 -22 -9 -28
-28 -28 -19 0 -24 -5 -24 -25 0 -20 -5 -25 -24 -25 -23 0 -25 4 -28 53 -3 48
-5 52 -30 55 -26 3 -28 6 -28 53 0 46 -2 49 -25 49 -21 0 -25 5 -25 30 0 25
-4 30 -25 30 -20 0 -25 5 -25 25 0 21 -5 25 -30 25 -25 0 -30 -4 -30 -25 0
-20 -5 -25 -25 -25 -20 0 -25 5 -25 25 0 20 -5 25 -25 25 -20 0 -25 -5 -25
-25 0 -24 -3 -25 -55 -25 -52 0 -55 1 -55 25 0 20 -5 25 -25 25 -20 0 -25 5
-25 24 0 19 -6 25 -27 28 -28 3 -28 4 -29 83 -1 78 -2 80 -27 83 -26 3 -26 3
-29 -80z m532 -698 c0 -79 0 -80 -25 -80 -20 0 -25 -5 -25 -24 0 -18 -6 -25
-22 -28 -17 -2 -24 -11 -26 -30 -3 -24 -8 -28 -33 -28 -24 0 -29 4 -29 25 0
15 6 26 15 26 8 1 21 2 28 3 6 0 13 13 15 29 3 21 9 27 28 27 19 0 24 5 24 25
0 20 -5 25 -24 25 -19 0 -25 6 -28 28 -2 21 -9 28 -30 30 -22 3 -28 9 -28 28
0 23 2 24 80 24 l80 0 0 -80z m88 -139 c22 -1 22 -3 22 -131 l0 -130 -25 0
c-21 0 -25 -5 -25 -30 0 -25 4 -30 25 -30 20 0 25 -5 25 -25 0 -20 5 -25 24
-25 23 0 25 4 28 53 l3 52 80 0 c79 0 80 0 80 -25 0 -20 -6 -26 -28 -28 -25
-3 -27 -6 -27 -52 l0 -49 -52 -3 c-49 -3 -53 -5 -53 -28 0 -20 -6 -26 -28 -28
-21 -3 -27 -9 -27 -28 0 -19 -5 -24 -25 -24 -21 0 -25 -5 -25 -30 l0 -31 78 3
c76 3 77 3 80 31 3 21 9 27 28 27 22 0 24 -3 24 -55 l0 -55 -56 0 -55 0 2 -52
3 -53 -107 -3 -107 -3 0 31 c0 25 4 30 25 30 20 0 25 5 25 25 0 21 5 25 30 25
25 0 30 4 30 24 0 19 -6 25 -27 28 -22 2 -28 8 -28 28 0 20 6 26 28 28 l27 3
0 104 0 104 -27 3 c-26 3 -28 7 -31 56 -3 48 -5 52 -28 52 -19 0 -24 5 -24 25
0 24 -3 25 -55 25 -52 0 -55 -1 -55 -25 0 -21 5 -25 30 -25 25 0 30 -4 30 -25
0 -20 5 -25 25 -25 21 0 25 -5 25 -30 0 -25 4 -30 25 -30 20 0 25 -5 25 -25 0
-20 -5 -25 -25 -25 -20 0 -25 -5 -25 -25 0 -20 5 -25 25 -25 21 0 25 -5 25
-30 0 -25 -4 -30 -25 -30 -21 0 -25 5 -25 30 0 30 -1 30 -55 30 -52 0 -55 1
-55 25 0 23 -3 25 -50 25 -47 0 -50 2 -50 25 0 21 -5 25 -30 25 -25 0 -30 -4
-30 -25 0 -20 -5 -25 -25 -25 -20 0 -25 5 -25 25 0 20 5 25 24 25 19 0 25 6
28 28 3 25 7 27 56 30 l52 3 0 -30 c0 -26 4 -31 25 -31 24 0 25 3 25 55 l0 55
-50 0 c-47 0 -50 2 -50 25 0 23 3 25 50 25 49 0 50 1 50 30 l0 30 80 0 c79 0
80 0 80 25 0 20 -5 25 -25 25 -20 0 -25 5 -25 24 0 21 6 25 33 28 17 2 43 2
57 1 14 -1 35 -2 48 -2z m234 -131 l-4 -81 -76 3 -77 3 -3 78 -3 77 83 0 83 0
-3 -80z m-960 3 c3 -28 4 -28 81 -31 74 -3 77 -4 77 -27 0 -21 5 -25 31 -25
l30 0 -3 -52 c-3 -49 -5 -53 -28 -53 -23 0 -25 4 -28 53 -3 48 -5 52 -28 52
-23 0 -24 -3 -24 -55 0 -52 -1 -55 -25 -55 -24 0 -25 3 -25 55 l0 55 -55 0
-55 0 0 55 c0 52 2 55 24 55 19 0 25 -6 28 -27z m-2 -323 c0 -27 3 -30 30 -30
27 0 30 3 30 30 0 25 4 30 25 30 21 0 25 -5 25 -30 0 -25 4 -30 25 -30 20 0
25 -5 25 -25 0 -25 -1 -25 -80 -25 l-80 0 0 -30 c0 -25 -4 -30 -25 -30 -21 0
-25 5 -25 30 0 25 4 30 25 30 20 0 25 5 25 25 0 20 -5 25 -25 25 -20 0 -25 5
-25 23 0 28 7 37 32 37 13 0 18 -8 18 -30z m1280 -215 l0 -135 -25 0 c-20 0
-25 -5 -25 -25 0 -20 -5 -25 -25 -25 -24 0 -25 -3 -25 -55 0 -52 1 -55 25 -55
20 0 25 -5 25 -25 0 -24 -3 -25 -55 -25 l-55 0 0 80 c0 79 0 80 -25 80 -21 0
-25 -5 -25 -30 0 -25 -4 -30 -25 -30 -20 0 -25 -5 -25 -25 0 -24 -3 -25 -55
-25 l-55 0 0 55 c0 52 1 55 25 55 15 0 26 -6 26 -15 1 -8 2 -21 3 -27 0 -7 13
-14 29 -16 27 -3 27 -2 27 52 0 55 0 56 -29 56 l-29 0 0 80 0 80 54 0 c51 0
54 1 54 25 0 24 3 25 55 25 52 0 55 -1 55 -25 0 -20 5 -25 25 -25 24 0 25 3
25 55 0 52 1 55 25 55 l25 0 0 -135z"/>
<path d="M2440 2575 c0 -52 -1 -55 -25 -55 -20 0 -25 -5 -25 -25 0 -20 5 -25
25 -25 20 0 25 5 25 25 0 21 5 25 28 25 23 0 28 -4 28 -22 -1 -18 5 -24 27
-26 23 -3 27 0 27 22 0 21 5 26 25 26 21 0 25 5 25 30 0 25 -4 30 -25 30 -20
0 -25 5 -25 25 0 24 -3 25 -55 25 l-55 0 0 -55z"/>
<path d="M1530 3515 c0 -21 5 -25 30 -25 25 0 30 -4 30 -24 0 -18 6 -25 23
-28 16 -2 23 -11 25 -30 3 -22 9 -28 27 -28 18 0 24 6 27 28 2 21 9 28 31 30
25 3 27 6 27 53 l0 49 -55 0 c-52 0 -55 -1 -55 -25 0 -20 -5 -25 -25 -25 -20
0 -25 5 -25 25 0 21 -5 25 -30 25 -25 0 -30 -4 -30 -25z"/>
<path d="M2972 2255 c3 -53 4 -55 30 -55 23 0 28 -4 28 -25 0 -24 3 -25 56
-25 55 0 56 -1 52 -25 -5 -22 -2 -25 23 -25 24 0 29 4 29 25 0 20 5 25 25 25
20 0 25 5 25 25 0 20 -5 25 -25 25 -20 0 -25 -5 -25 -25 0 -20 -5 -25 -25 -25
-20 0 -25 5 -25 24 0 19 -6 25 -27 28 -26 3 -28 7 -31 56 l-3 52 -55 0 -55 0
3 -55z"/>
<path d="M2600 4640 c0 -30 1 -30 55 -30 l55 0 0 -49 c0 -47 -2 -50 -27 -53
-22 -2 -28 -8 -28 -28 0 -20 6 -26 28 -28 21 -3 27 -9 27 -28 0 -19 5 -24 25
-24 20 0 25 5 25 25 0 20 -5 25 -25 25 -21 0 -25 5 -25 30 0 25 4 30 25 30 20
0 25 5 25 25 0 20 5 25 25 25 20 0 25 5 25 25 0 20 -5 25 -25 25 -21 0 -25 5
-25 30 l0 30 -80 0 -80 0 0 -30z"/>
<path d="M3405 4657 c-3 -7 -4 -91 -3 -187 l3 -175 185 0 185 0 0 185 0 185
-183 3 c-143 2 -184 0 -187 -11z m315 -177 l0 -130 -130 0 -130 0 0 130 0 130
130 0 130 0 0 -130z"/>
<path d="M3510 4480 l0 -80 80 0 80 0 0 80 0 80 -80 0 -80 0 0 -80z"/>
<path d="M2 1083 l-2 -1083 2218 2 2217 3 -2191 2 -2191 3 -19 21 c-18 20 -19
57 -24 1078 l-5 1056 -3 -1082z"/>
<path d="M730 1800 l0 -190 188 2 187 3 0 185 0 185 -187 3 -188 2 0 -190z
m320 -1 l0 -129 -135 0 -135 0 0 128 c0 71 2 131 4 133 2 2 63 3 135 1 l131
-3 0 -130z"/>
<path d="M840 1800 l0 -80 80 0 80 0 0 80 0 80 -80 0 -80 0 0 -80z"/>
<path d="M2995 816 c-37 -16 -92 -77 -101 -112 -13 -52 1 -129 31 -168 39 -51
79 -70 145 -70 102 1 170 62 178 159 2 30 2 65 -2 79 -9 36 -65 96 -103 112
-41 17 -109 17 -148 0z m95 -66 c13 -26 27 -40 40 -40 26 0 33 -15 16 -33 -10
-10 -16 -40 -18 -88 -2 -58 -6 -74 -18 -74 -8 0 -16 10 -18 23 -2 13 -10 22
-20 22 -35 0 -62 29 -62 67 0 22 -6 41 -17 48 -26 19 -6 35 43 35 l45 0 -25
33 c-31 41 -32 47 -6 47 13 0 27 -14 40 -40z"/>
<path d="M3873 809 c-37 -24 -68 -70 -78 -116 -5 -25 -2 -36 14 -52 28 -28 37
-26 50 10 17 48 14 62 -9 56 -31 -8 -24 9 14 32 48 30 60 28 52 -11 -4 -18
-10 -49 -13 -68 l-6 -35 33 26 c19 14 45 46 59 72 24 43 25 48 11 74 -21 37
-80 43 -127 12z"/>
<path d="M3666 704 c-3 -26 -6 -93 -6 -150 0 -99 1 -103 26 -123 25 -20 40
-21 209 -21 244 0 235 -6 235 168 0 70 -4 133 -9 141 -11 16 -46 24 -76 17
-11 -3 -28 -20 -39 -38 -25 -44 -88 -97 -133 -113 -37 -13 -86 -6 -107 15 -13
13 -14 96 -2 125 4 11 4 15 -1 9 -13 -17 -43 -25 -37 -10 4 11 -21 25 -47 26
-4 0 -9 -21 -13 -46z m103 -206 l8 -22 14 22 c15 24 39 30 39 8 0 -9 8 -12 25
-8 14 2 32 -1 40 -8 13 -10 15 -9 15 9 0 21 15 29 22 12 2 -4 13 -12 26 -15
16 -6 22 -3 22 8 0 9 4 16 9 16 5 0 7 -10 3 -22 -3 -14 -2 -19 6 -14 7 4 12
14 12 22 0 8 5 14 11 14 7 0 9 -9 5 -22 -3 -13 -6 -28 -6 -35 0 -6 -13 -11
-30 -11 -18 1 -27 5 -23 12 4 6 0 6 -8 -1 -18 -15 -109 -15 -126 -1 -9 7 -13
7 -13 -1 0 -6 -5 -11 -11 -11 -6 0 -8 7 -5 17 6 16 6 16 -12 0 -20 -18 -47
-24 -37 -8 3 5 1 12 -5 16 -5 3 -10 -1 -10 -9 0 -9 -4 -16 -10 -16 -5 0 -7 15
-5 33 l5 32 -12 -32 c-11 -34 -28 -44 -28 -17 0 51 62 76 79 32z"/>
<path d="M2015 712 c-3 -3 -5 -62 -5 -132 0 -172 -10 -164 213 -168 189 -4
208 -1 237 30 18 20 20 35 20 151 0 119 -1 129 -17 122 -30 -12 -304 -18 -376
-8 -37 5 -69 7 -72 5z m148 -73 c9 -17 17 -37 17 -44 0 -9 6 -12 15 -9 8 4 15
1 15 -5 0 -6 -6 -11 -12 -12 -10 0 -10 -2 0 -6 6 -2 12 -13 12 -24 0 -16 7
-19 55 -19 49 0 57 3 64 23 5 12 7 25 5 29 -6 9 40 58 55 58 16 0 14 -9 -13
-76 l-24 -59 -85 -3 -84 -3 -33 76 c-30 68 -35 75 -61 75 -19 0 -29 5 -29 15
0 11 11 15 43 15 36 0 44 -4 60 -31z"/>
<path d="M1495 188 c-3 -7 -11 -41 -19 -75 l-14 -63 88 0 88 0 7 30 c4 16 4
34 0 40 -3 5 -2 10 3 10 5 0 13 16 19 35 l11 35 -89 0 c-63 0 -91 -4 -94 -12z"/>
</g>
</svg>
